<svg version="1" xmlns="http://www.w3.org/2000/svg" width="341.333" height="341.333" viewBox="0 0 256.000000 256.000000"><path d="M201.1 12.7c3 11.8 4.9 21.3 4.2 21.3-.2 0-1.4-.5-2.6-1.2-2-1.1-26.9-6.9-27.4-6.4-.1.1 2.7 4.2 6.2 9.1 5.6 7.8 14.1 23.2 13.3 24-.2.2-2.1-.6-4.3-1.7-6.8-3.4-23.1-8.7-33.8-10.9-15.3-3.1-39.6-3.4-54.7-.6-6.5 1.3-16.4 3.8-21.5 5.6l-5.5 2-2.9-5.7c-4-7.7-9.3-12.9-17.1-16.6-5.7-2.7-7.6-3.1-15-3.1s-9.3.4-15 3.1C16.9 35.5 11.7 40.7 7.6 49c-3 6.3-3.1 6.8-3 20 .1 14.6 2.3 27.8 7.1 42 3 8.8 9.8 23.7 13.6 29.7L28 145v41.2l-4 4.5c-4.4 5-5 8.1-2.6 13.8 2.5 5.9 10.5 9.2 15.7 6.4 1.5-.8 3.4-.7 7.1.2 4.5 1.2 5.3 1.1 8.6-.6 8.1-4.3 9.2-13.2 2.6-20.5l-3.5-3.8.3-15 .3-15.1 11.3 22.2c32.2 63.1 35.8 69.8 38.7 71.7 2.8 1.8 4.9 2 25.3 2 23.5 0 26.1-.4 28.9-4.9 1.1-1.8 13.1-25 29.9-57.9 11.9-23.2 11.1-22.5 12.8-10.7.5 3.7.9 5.9 2.1 12.5.3 1.4.7 4.7 1.1 7.5 1.1 8.9 7.9 14.6 15.7 13.1 7.6-1.4 10.1-5.4 12.2-19.8.9-5.7 1.7-11.4 2-12.8.2-1.4.9-6.1 1.5-10.5.7-4.4 1.4-8.9 1.6-10 .2-1 .6-3.7.9-6 .3-2.2.8-5.1 1-6.5.6-3.2 1.1-6.1 2.9-18.5.9-5.5 1.8-11.6 2.1-13.5.3-1.9.8-9.2 1.1-16.2.7-14.3-.5-20.3-5.4-26.7-2.5-3.4-2.5-3.4-.7-6.5 8-13.5 10.9-19.1 13.6-26 1.6-4.3 2.8-8 2.6-8.2-.2-.2-3 .5-6.2 1.6l-5.8 2 .7-4.8c.3-2.6.9-9.6 1.3-15.6l.6-10.9-2.9.7c-5 1.2-10.8 4.7-14.6 8.7-3.6 3.8-3.7 3.9-5.5 2.1-3.9-3.9-9.6-7.4-15.8-9.7-3.6-1.4-6.7-2.5-6.9-2.5-.2 0 .9 4.8 2.5 10.7z"/></svg>